<svg version="1.1" preserveAspectRatio="none" xmlns="http://www.w3.org/2000/svg" width="500" height="500" viewBox="0 0 500 500"><rect width="100%" height="100%" fill="#EBEBEB" fill-opacity="1"/><svg viewBox="425.4861 256.124 390.2408 290.0812" width="333" height="247.53188185346076" x="83.5px" y="126.2341px" xmlns="http://www.w3.org/2000/svg" xmlns:xlink="http://www.w3.org/1999/xlink" preserveAspectRatio="none"><defs></defs><style>.aLgOaV3zRcolors-3 {fill:#BDBDC2;fill-opacity:1;}.aLgOaV3zRcolors-4 {fill:#51F3DA;fill-opacity:1;}.aLgOaV3zRcolors-5 {fill:#A7ACB0;fill-opacity:1;}.aLgOaV3zRcolors-6 {fill:#0AC5A8;fill-opacity:1;}.aLgOaV3zRcolors-7 {fill:#869CB8;fill-opacity:1;}.companyName {fill:#869CB8;fill-opacity:1;}.icon1 {fill:#2C3C5B;fill-opacity:1;}.icon2 {fill:#5E738E;fill-opacity:1;}.icon3 {fill:#151F35;fill-opacity:1;}.icon3-str {stroke:#151F35;stroke-opacity:1;}.text {fill:#869CB8;fill-opacity:1;}</style><g opacity="1" transform="rotate(0 573.5147 525.2052)">
<svg width="94.1837" height="21" x="573.5147" y="525.2052" version="1.1" preserveAspectRatio="none" viewBox="0.8 -26.28 154.07999999999998 34.36">
  <g transform="matrix(1 0 0 1 0 0)" class="text"><path id="id-6izo4zJp6" d="M10.12 0.32Q7.44 0.32 4.88-0.34Q2.32-1 0.80-2L0.80-2L2.88-6.48Q4.32-5.56 6.36-4.98Q8.40-4.40 10.36-4.40L10.36-4.40Q14.32-4.40 14.32-6.36L14.32-6.36Q14.32-7.28 13.24-7.68Q12.16-8.08 9.92-8.36L9.92-8.36Q7.28-8.76 5.56-9.28Q3.84-9.80 2.58-11.12Q1.32-12.44 1.32-14.88L1.32-14.88Q1.32-16.92 2.50-18.50Q3.68-20.08 5.94-20.96Q8.20-21.84 11.28-21.84L11.28-21.84Q13.56-21.84 15.82-21.34Q18.08-20.84 19.56-19.96L19.56-19.96L17.48-15.52Q14.64-17.12 11.28-17.12L11.28-17.12Q9.28-17.12 8.28-16.56Q7.28-16 7.28-15.12L7.28-15.12Q7.28-14.12 8.36-13.72Q9.44-13.32 11.80-12.96L11.80-12.96Q14.44-12.52 16.12-12.02Q17.80-11.52 19.04-10.20Q20.28-8.88 20.28-6.52L20.28-6.52Q20.28-4.52 19.08-2.96Q17.88-1.40 15.58-0.54Q13.28 0.32 10.12 0.32L10.12 0.32Z M40.68-21.52L46.68-21.52L36.96 1.32Q35.48 5.04 33.30 6.56Q31.12 8.08 28.04 8.08L28.04 8.08Q26.36 8.08 24.72 7.56Q23.08 7.04 22.04 6.12L22.04 6.12L24.32 1.68Q25.04 2.32 25.98 2.68Q26.92 3.04 27.84 3.04L27.84 3.04Q29.12 3.04 29.92 2.42Q30.72 1.80 31.36 0.36L31.36 0.36L31.44 0.16L22.12-21.52L28.56-21.52L34.60-6.92L40.68-21.52Z M57.76 0.32Q55.08 0.32 52.52-0.34Q49.96-1 48.44-2L48.44-2L50.52-6.48Q51.96-5.56 54.00-4.98Q56.04-4.40 58.00-4.40L58.00-4.40Q61.96-4.40 61.96-6.36L61.96-6.36Q61.96-7.28 60.88-7.68Q59.80-8.08 57.56-8.36L57.56-8.36Q54.92-8.76 53.20-9.28Q51.48-9.80 50.22-11.12Q48.96-12.44 48.96-14.88L48.96-14.88Q48.96-16.92 50.14-18.50Q51.32-20.08 53.58-20.96Q55.84-21.84 58.92-21.84L58.92-21.84Q61.20-21.84 63.46-21.34Q65.72-20.84 67.20-19.96L67.20-19.96L65.12-15.52Q62.28-17.12 58.92-17.12L58.92-17.12Q56.92-17.12 55.92-16.56Q54.92-16 54.92-15.12L54.92-15.12Q54.92-14.12 56.00-13.72Q57.08-13.32 59.44-12.96L59.44-12.96Q62.08-12.52 63.76-12.02Q65.44-11.52 66.68-10.20Q67.92-8.88 67.92-6.52L67.92-6.52Q67.92-4.52 66.72-2.96Q65.52-1.40 63.22-0.54Q60.92 0.32 57.76 0.32L57.76 0.32Z M85.56-5.44L87.24-1.04Q86.32-0.36 84.98-0.02Q83.64 0.32 82.16 0.32L82.16 0.32Q78.32 0.32 76.22-1.64Q74.12-3.60 74.12-7.40L74.12-7.40L74.12-16.24L70.80-16.24L70.80-21.04L74.12-21.04L74.12-26.28L80.36-26.28L80.36-21.04L85.72-21.04L85.72-16.24L80.36-16.24L80.36-7.48Q80.36-6.12 81.06-5.38Q81.76-4.64 83.04-4.64L83.04-4.64Q84.52-4.64 85.56-5.44L85.56-5.44Z M112.76-10.68Q112.76-10.56 112.64-9L112.64-9L96.36-9Q96.80-7 98.44-5.84Q100.08-4.68 102.52-4.68L102.52-4.68Q104.20-4.68 105.50-5.18Q106.80-5.68 107.92-6.76L107.92-6.76L111.24-3.16Q108.20 0.32 102.36 0.32L102.36 0.32Q98.72 0.32 95.92-1.10Q93.12-2.52 91.60-5.04Q90.08-7.56 90.08-10.76L90.08-10.76Q90.08-13.92 91.58-16.46Q93.08-19 95.70-20.42Q98.32-21.84 101.56-21.84L101.56-21.84Q104.72-21.84 107.28-20.48Q109.84-19.12 111.30-16.58Q112.76-14.04 112.76-10.68L112.76-10.68ZM101.60-17.12Q99.48-17.12 98.04-15.92Q96.60-14.72 96.28-12.64L96.28-12.64L106.88-12.64Q106.56-14.68 105.12-15.90Q103.68-17.12 101.60-17.12L101.60-17.12Z M146.08-21.84Q150.12-21.84 152.50-19.46Q154.88-17.08 154.88-12.32L154.88-12.32L154.88 0L148.64 0L148.64-11.36Q148.64-13.92 147.58-15.18Q146.52-16.44 144.56-16.44L144.56-16.44Q142.36-16.44 141.08-15.02Q139.80-13.60 139.80-10.80L139.80-10.80L139.80 0L133.56 0L133.56-11.36Q133.56-16.44 129.48-16.44L129.48-16.44Q127.32-16.44 126.04-15.02Q124.76-13.60 124.76-10.80L124.76-10.80L124.76 0L118.52 0L118.52-21.52L124.48-21.52L124.48-19.04Q125.68-20.40 127.42-21.12Q129.16-21.84 131.24-21.84L131.24-21.84Q133.52-21.84 135.36-20.94Q137.20-20.04 138.32-18.32L138.32-18.32Q139.64-20 141.66-20.92Q143.68-21.84 146.08-21.84L146.08-21.84Z"/></g>
</svg>
</g><g opacity="1" transform="rotate(0 425.4861 449.2052)">
<svg width="390.2408" height="60" x="425.4861" y="449.2052" version="1.1" preserveAspectRatio="none" viewBox="1 -31 260.68 40.08">
  <g transform="matrix(1 0 0 1 0 0)" class="companyName"><path id="id-D6z1nYkh13" d="M14.96-1.44L14.96-2.64Q13.44-0.64 10.12-0.64Q6.80-0.64 3.90-3.70Q1-6.76 1-10.84Q1-14.92 3.92-18Q6.84-21.08 10.32-21.08L10.32-21.08Q11.68-21.08 12.80-20.58Q13.92-20.08 14.34-19.66Q14.76-19.24 15-18.88L15-18.88Q15.12-20 15.82-20.58Q16.52-21.16 18.08-21.16Q19.64-21.16 20.36-20.92Q21.08-20.68 21.38-20.10Q21.68-19.52 21.74-19.08Q21.80-18.64 21.80-17.72L21.80-17.72L21.80-1.16Q21.80 3.44 18.60 6.26Q15.40 9.08 11.40 9.08L11.40 9.08Q8.36 9.08 5.60 7.60Q2.84 6.12 2.84 4.92L2.84 4.92Q2.84 3.36 4.04 2.16L4.04 2.16Q4.80 1.32 5.22 1Q5.64 0.68 6.20 0.68Q6.76 0.68 7.36 1.16L7.36 1.16Q9.28 2.64 11.52 2.64L11.52 2.64Q13.04 2.64 14 1.44Q14.96 0.24 14.96-1.44L14.96-1.44ZM7.84-10.82Q7.84-9.52 8.86-8.48Q9.88-7.44 11.34-7.44Q12.80-7.44 13.76-8.50Q14.72-9.56 14.72-10.82Q14.72-12.08 13.80-13.18Q12.88-14.28 11.32-14.28Q9.76-14.28 8.80-13.20Q7.84-12.12 7.84-10.82Z M39.32-20.84Q40.08-20.60 40.58-20.02Q41.08-19.44 41.08-18.16Q41.08-16.88 40.32-15.36Q39.56-13.84 38.12-13.84L38.12-13.84Q37.40-13.84 36.74-14.16Q36.08-14.48 35-14.48Q33.92-14.48 32.98-13.72Q32.04-12.96 32.04-11.88L32.04-11.88L32.04-3.48Q32.04-2.56 31.98-2.10Q31.92-1.64 31.60-1.04L31.60-1.04Q31.00 0 28.48 0L28.48 0Q26.56 0 25.72-0.68L25.72-0.68Q25.08-1.24 25.00-2.40L25.00-2.40Q25.00-2.80 25.00-3.56L25.00-3.56L25.00-17.60Q25.00-18.52 25.06-18.98Q25.12-19.44 25.40-20L25.40-20Q25.96-21.08 28.52-21.08L28.52-21.08Q30.92-21.08 31.52-20.16L31.52-20.16Q31.96-19.52 31.96-18.84L31.96-18.84Q32.16-19.12 32.54-19.52Q32.92-19.92 34.16-20.60Q35.40-21.28 36.34-21.28Q37.28-21.28 37.92-21.18Q38.56-21.08 39.32-20.84Z M55.76-18.84L55.76-18.84Q56-21.08 58.92-21.08L58.92-21.08Q60.48-21.08 61.24-20.84Q62-20.60 62.30-20Q62.60-19.40 62.66-18.94Q62.72-18.48 62.72-17.56L62.72-17.56L62.72-3.56Q62.72-2.64 62.66-2.18Q62.60-1.72 62.32-1.12L62.32-1.12Q61.76-0.08 59.58-0.08Q57.40-0.08 56.66-0.62Q55.92-1.16 55.80-2.20L55.80-2.20Q54.32-0.08 50.86-0.08Q47.40-0.08 44.44-3.24Q41.48-6.40 41.48-10.58Q41.48-14.76 44.46-17.90Q47.44-21.04 51-21.04L51-21.04Q52.36-21.04 53.48-20.56Q54.60-20.08 55.04-19.66Q55.48-19.24 55.76-18.84ZM48.48-10.52Q48.48-9.20 49.52-8.14Q50.56-7.08 52.04-7.08Q53.52-7.08 54.50-8.16Q55.48-9.24 55.48-10.54Q55.48-11.84 54.54-12.96Q53.60-14.08 52.02-14.08Q50.44-14.08 49.46-12.96Q48.48-11.84 48.48-10.52Z M80.06-29.86Q80.36-30.44 81.12-30.68Q81.88-30.92 83.14-30.92Q84.40-30.92 85.16-30.68Q85.92-30.44 86.22-29.84Q86.52-29.24 86.58-28.78Q86.64-28.32 86.64-27.40L86.64-27.40L86.64-3.52Q86.64-2.60 86.58-2.14Q86.52-1.68 86.20-1.12L86.20-1.12Q85.60-0.04 82.82-0.04Q80.04-0.04 79.72-2L79.72-2Q78.04-0.08 75.04-0.08L75.04-0.08Q71.44-0.08 68.48-3.22Q65.52-6.36 65.52-10.54Q65.52-14.72 68.50-17.88Q71.48-21.04 75.04-21.04L75.04-21.04Q78-21.04 79.64-19.04L79.64-19.04L79.64-27.44Q79.64-28.36 79.70-28.82Q79.76-29.28 80.06-29.86ZM73.56-8.12Q74.60-7.04 76.08-7.04Q77.56-7.04 78.54-8.12Q79.52-9.20 79.52-10.50Q79.52-11.80 78.58-12.92Q77.64-14.04 76.04-14.04Q74.44-14.04 73.48-12.94Q72.52-11.84 72.52-10.52Q72.52-9.20 73.56-8.12Z M110.16-13.06Q110.16-10.60 108.94-9.42Q107.72-8.24 106.24-8.24L106.24-8.24L96.76-8.24Q96.76-7.12 98.08-6.36Q99.40-5.60 100.72-5.60L100.72-5.60Q103.04-5.60 104.36-6.08L104.36-6.08L104.80-6.24Q105.76-6.68 106.40-6.68L106.40-6.68Q107.68-6.68 108.60-4.88L108.60-4.88Q109.12-3.80 109.12-3.04L109.12-3.04Q109.12 0.52 100.60 0.52L100.60 0.52Q97.64 0.52 95.34-0.50Q93.04-1.52 91.76-3.20L91.76-3.20Q89.24-6.44 89.24-10.44L89.24-10.44Q89.24-15.48 92.50-18.50Q95.76-21.52 100.64-21.52L100.64-21.52Q106.20-21.52 108.80-17.60L108.80-17.60Q110.16-15.52 110.16-13.06ZM96.68-11.88L101.72-11.88Q103.24-11.88 103.24-13.16L103.24-13.16Q103.24-14.08 102.54-14.64Q101.84-15.20 100.54-15.20Q99.24-15.20 97.96-14.14Q96.68-13.08 96.68-11.88L96.68-11.88Z M135.12-14L135.12-14L132.52-14.16L132.52-8.64Q132.52-7.56 132.86-7.08Q133.20-6.60 134.14-6.60Q135.08-6.60 135.58-6.54Q136.08-6.48 136.64-6.16L136.64-6.16Q137.56-5.64 137.56-3.48L137.56-3.48Q137.56-0.96 136.44-0.40L136.44-0.40Q135.84-0.12 135.38-0.06Q134.92 0 134.04 0L134.04 0Q129.88 0 127.72-1.88Q125.56-3.76 125.56-8.24L125.56-8.24L125.56-14.16Q124.80-14.04 123.92-14.04Q123.04-14.04 122.46-14.72Q121.88-15.40 121.88-17.04Q121.88-18.68 122.08-19.42Q122.28-20.16 122.64-20.48L122.64-20.48Q123.28-21 124.24-21L124.24-21L125.56-20.84L125.56-24.96Q125.56-25.88 125.62-26.32Q125.68-26.76 126.00-27.28L126.00-27.28Q126.52-28.28 129.08-28.28L129.08-28.28Q131.80-28.28 132.32-26.80L132.32-26.80Q132.52-26.16 132.52-24.76L132.52-24.76L132.52-20.84Q134.28-21 135.18-21Q136.08-21 136.54-20.94Q137.00-20.88 137.60-20.56L137.60-20.56Q138.64-20.04 138.64-17.48L138.64-17.48Q138.64-14.96 137.56-14.40L137.56-14.40Q136.96-14.12 136.50-14.06Q136.04-14 135.12-14Z M155.16-20.84Q155.92-20.60 156.42-20.02Q156.92-19.44 156.92-18.16Q156.92-16.88 156.16-15.36Q155.40-13.84 153.96-13.84L153.96-13.84Q153.24-13.84 152.58-14.16Q151.92-14.48 150.84-14.48Q149.76-14.48 148.82-13.72Q147.88-12.96 147.88-11.88L147.88-11.88L147.88-3.48Q147.88-2.56 147.82-2.10Q147.76-1.64 147.44-1.04L147.44-1.04Q146.84 0 144.32 0L144.32 0Q142.40 0 141.56-0.68L141.56-0.68Q140.92-1.24 140.84-2.40L140.84-2.40Q140.84-2.80 140.84-3.56L140.84-3.56L140.84-17.60Q140.84-18.52 140.90-18.98Q140.96-19.44 141.24-20L141.24-20Q141.80-21.08 144.36-21.08L144.36-21.08Q146.76-21.08 147.36-20.16L147.36-20.16Q147.80-19.52 147.80-18.84L147.80-18.84Q148-19.12 148.38-19.52Q148.76-19.92 150-20.60Q151.24-21.28 152.18-21.28Q153.12-21.28 153.76-21.18Q154.40-21.08 155.16-20.84Z M171.60-18.84L171.60-18.84Q171.84-21.08 174.76-21.08L174.76-21.08Q176.32-21.08 177.08-20.84Q177.84-20.60 178.14-20Q178.44-19.40 178.50-18.94Q178.56-18.48 178.56-17.56L178.56-17.56L178.56-3.56Q178.56-2.64 178.50-2.18Q178.44-1.72 178.16-1.12L178.16-1.12Q177.60-0.08 175.42-0.08Q173.24-0.08 172.50-0.62Q171.76-1.16 171.64-2.20L171.64-2.20Q170.16-0.08 166.70-0.08Q163.24-0.08 160.28-3.24Q157.32-6.40 157.32-10.58Q157.32-14.76 160.30-17.90Q163.28-21.04 166.84-21.04L166.84-21.04Q168.20-21.04 169.32-20.56Q170.44-20.08 170.88-19.66Q171.32-19.24 171.60-18.84ZM164.32-10.52Q164.32-9.20 165.36-8.14Q166.40-7.08 167.88-7.08Q169.36-7.08 170.34-8.16Q171.32-9.24 171.32-10.54Q171.32-11.84 170.38-12.96Q169.44-14.08 167.86-14.08Q166.28-14.08 165.30-12.96Q164.32-11.84 164.32-10.52Z M188.36-10.54Q188.36-8.84 189.48-7.90Q190.60-6.96 191.86-6.96Q193.12-6.96 194.22-7.70Q195.32-8.44 196.00-8.44L196.00-8.44Q197.20-8.44 198.92-6.32L198.92-6.32Q199.84-5.16 199.84-4.24L199.84-4.24Q199.84-2.72 197.64-1.40L197.64-1.40Q195.36 0.20 192.04 0.20L192.04 0.20Q188.32 0.20 184.88-2.48L184.88-2.48Q183.24-3.76 182.20-5.90Q181.16-8.04 181.16-10.62Q181.16-13.20 182.20-15.30Q183.24-17.40 184.88-18.68L184.88-18.68Q188.20-21.32 191.96-21.32L191.96-21.32Q193.48-21.32 194.92-20.90Q196.36-20.48 197.04-20.08L197.04-20.08L197.68-19.68Q198.40-19.20 198.80-18.92L198.80-18.92Q199.84-18.12 199.84-17.10Q199.84-16.08 199.00-14.80L199.00-14.80Q197.56-12.60 196.24-12.60L196.24-12.60Q195.48-12.60 194.08-13.48L194.08-13.48Q193.36-14.16 192.02-14.16Q190.68-14.16 189.52-13.20Q188.36-12.24 188.36-10.54Z M218.80-13.92L214.84-10.56L220.16-6.16Q221.16-5.32 221.42-4.88Q221.68-4.44 221.68-4.04L221.68-4.04Q221.68-3.08 220.44-1.44L220.44-1.44Q219.08 0.24 218.04 0.24L218.04 0.24Q217.16 0.24 215.60-0.92L215.60-0.92L215.20-1.20Q214.28-1.96 212.36-3.86Q210.44-5.76 209.44-6.56L209.44-6.56L209.44-3.48Q209.44-2.56 209.38-2.10Q209.32-1.64 209.00-1.04L209.00-1.04Q208.48 0 205.92 0L205.92 0Q203.40 0 202.84-1.08L202.84-1.08Q202.56-1.68 202.50-2.14Q202.44-2.60 202.44-3.52L202.44-3.52L202.44-27.48Q202.44-28.40 202.50-28.86Q202.56-29.32 202.84-29.92L202.84-29.92Q203.40-31 205.96-31L205.96-31Q207.88-31 208.68-30.32L208.68-30.32Q209.36-29.76 209.40-28.56L209.40-28.56Q209.44-28.20 209.44-27.44L209.44-27.44L209.44-14.76Q210.16-15.36 211.62-16.80Q213.08-18.24 213.80-18.84L213.80-18.84L214.28-19.16Q215.68-20.24 216.68-20.24Q217.68-20.24 218.98-18.62Q220.28-17 220.28-16.08Q220.28-15.16 218.80-13.92L218.80-13.92Z M243.00-13.06Q243.00-10.60 241.78-9.42Q240.56-8.24 239.08-8.24L239.08-8.24L229.60-8.24Q229.60-7.12 230.92-6.36Q232.24-5.60 233.56-5.60L233.56-5.60Q235.88-5.60 237.20-6.08L237.20-6.08L237.64-6.24Q238.60-6.68 239.24-6.68L239.24-6.68Q240.52-6.68 241.44-4.88L241.44-4.88Q241.96-3.80 241.96-3.04L241.96-3.04Q241.96 0.52 233.44 0.52L233.44 0.52Q230.48 0.52 228.18-0.50Q225.88-1.52 224.60-3.20L224.60-3.20Q222.08-6.44 222.08-10.44L222.08-10.44Q222.08-15.48 225.34-18.50Q228.60-21.52 233.48-21.52L233.48-21.52Q239.04-21.52 241.64-17.60L241.64-17.60Q243.00-15.52 243.00-13.06ZM229.52-11.88L234.56-11.88Q236.08-11.88 236.08-13.16L236.08-13.16Q236.08-14.08 235.38-14.64Q234.68-15.20 233.38-15.20Q232.08-15.20 230.80-14.14Q229.52-13.08 229.52-11.88L229.52-11.88Z M259.92-20.84Q260.68-20.60 261.18-20.02Q261.68-19.44 261.68-18.16Q261.68-16.88 260.92-15.36Q260.16-13.84 258.72-13.84L258.72-13.84Q258.00-13.84 257.34-14.16Q256.68-14.48 255.60-14.48Q254.52-14.48 253.58-13.72Q252.64-12.96 252.64-11.88L252.64-11.88L252.64-3.48Q252.64-2.56 252.58-2.10Q252.52-1.64 252.20-1.04L252.20-1.04Q251.60 0 249.08 0L249.08 0Q247.16 0 246.32-0.68L246.32-0.68Q245.68-1.24 245.60-2.40L245.60-2.40Q245.60-2.80 245.60-3.56L245.60-3.56L245.60-17.60Q245.60-18.52 245.66-18.98Q245.72-19.44 246.00-20L246.00-20Q246.56-21.08 249.12-21.08L249.12-21.08Q251.52-21.08 252.12-20.16L252.12-20.16Q252.56-19.52 252.56-18.84L252.56-18.84Q252.76-19.12 253.14-19.52Q253.52-19.92 254.76-20.60Q256.00-21.28 256.94-21.28Q257.88-21.28 258.52-21.18Q259.16-21.08 259.92-20.84Z"/></g>
</svg>
</g><g opacity="1" transform="rotate(0 542.5583 256.124)">
<svg width="156.0964" height="153.0812" x="542.5583" y="256.124" version="1.1" preserveAspectRatio="none" viewBox="28.399999618530273 32.20000076293945 142.83399963378906 140.0749969482422">
  <g transform="matrix(1 0 0 1 0 0)" class="icon1"><g><path d="M171.234 143.7V32.2H28.4v111.5h65.541v16.575h-25.5v12h62v-12h-24.5V143.7zM71.456 97.849l-7.984-6.02 17.434-23.122 34.758 24.848 12.7-14.943 7.62 6.476-18.654 21.949-34.309-24.525z"></path></g></g>
</svg>
</g></svg></svg>