<svg version="1.1" preserveAspectRatio="none" xmlns="http://www.w3.org/2000/svg" width="500" height="500" viewBox="0 0 500 500"><rect width="100%" height="100%" fill="#2C3C5B" fill-opacity="1"/><svg viewBox="55.2691 97.055 277.3152 186" width="333" height="223.34873818672762" x="83.5px" y="138.3256px" xmlns="http://www.w3.org/2000/svg" xmlns:xlink="http://www.w3.org/1999/xlink" preserveAspectRatio="none"><defs></defs><style>.a6izo4zJpcolor {fill:#F5F5F5;fill-opacity:1;}.aD6z1nYkhcolor {fill:#F5F5F5;fill-opacity:1;}.companyName {fill:#F5F5F5;fill-opacity:1;}.icon3 {fill:#151F35;fill-opacity:1;}.icon3-str {stroke:#151F35;stroke-opacity:1;}.shape {fill:#869CB8;fill-opacity:1;}</style><g opacity="1" transform="rotate(0 128.406 101.055)">
<svg width="135.0414" height="70" x="128.406" y="101.055" version="1.1" preserveAspectRatio="none" viewBox="1 -26.16 51.239999999999995 26.56">
  <g transform="matrix(1 0 0 1 0 0)" class="icon3"><path id="id-IechDY4gX2" d="M15.08 0.40Q8.24 0.40 4.62-2.96Q1-6.32 1-12.64L1-12.64Q1-19.16 4.74-22.66Q8.48-26.16 15.60-26.16L15.60-26.16Q20.20-26.16 23.60-25.04L23.60-25.04L23.60-18.60Q20.48-19.76 16.12-19.76L16.12-19.76Q12.36-19.76 10.52-18.06Q8.68-16.36 8.68-12.64L8.68-12.64Q8.68-9.20 10.26-7.60Q11.84-6 15.08-6L15.08-6Q17-6 18.76-6.52L18.76-6.52L18.76-10.28L13.64-10.28L13.64-14.92L25.04-14.92L25.04-1.96Q23.40-0.92 20.90-0.26Q18.40 0.40 15.08 0.40L15.08 0.40Z M37.48 0L37.48-20.16L30.24-20.16L30.24-25.76L52.24-25.76L52.24-20.16L45-20.16L45 0L37.48 0Z"/></g>
</svg>
</g><g opacity="1" transform="rotate(0 124.4059 97.055)">
<svg width="135.0415" height="70" x="124.4059" y="97.055" version="1.1" preserveAspectRatio="none" viewBox="1 -26.16 51.239999999999995 26.56">
  <g transform="matrix(1 0 0 1 0 0)" class="shape"><path id="id-p1tucruSh2" d="M15.08 0.40Q8.24 0.40 4.62-2.96Q1-6.32 1-12.64L1-12.64Q1-19.16 4.74-22.66Q8.48-26.16 15.60-26.16L15.60-26.16Q20.20-26.16 23.60-25.04L23.60-25.04L23.60-18.60Q20.48-19.76 16.12-19.76L16.12-19.76Q12.36-19.76 10.52-18.06Q8.68-16.36 8.68-12.64L8.68-12.64Q8.68-9.20 10.26-7.60Q11.84-6 15.08-6L15.08-6Q17-6 18.76-6.52L18.76-6.52L18.76-10.28L13.64-10.28L13.64-14.92L25.04-14.92L25.04-1.96Q23.40-0.92 20.90-0.26Q18.40 0.40 15.08 0.40L15.08 0.40Z M37.48 0L37.48-20.16L30.24-20.16L30.24-25.76L52.24-25.76L52.24-20.16L45-20.16L45 0L37.48 0Z"/></g>
</svg>
</g><g opacity="1" transform="rotate(0 129.0409 99.055)">
<svg width="129.7716" height="70" x="129.0409" y="99.055" version="1.1" preserveAspectRatio="none" viewBox="1.24 -26.16 49.24 26.56">
  <g transform="matrix(1 0 0 1 0 0)" class="companyName"><path id="id-zm6CZq_Ug2" d="M14.88 0.40Q8.24 0.40 4.74-2.96Q1.24-6.32 1.24-12.52L1.24-12.52Q1.24-19.04 4.84-22.60Q8.44-26.16 15.28-26.16L15.28-26.16Q19.80-26.16 23.16-25.04L23.16-25.04L23.16-19.52Q20.12-20.64 15.76-20.64L15.76-20.64Q11.60-20.64 9.70-18.68Q7.80-16.72 7.80-12.52L7.80-12.52Q7.80-8.72 9.58-6.90Q11.36-5.08 14.92-5.08L14.92-5.08Q17.24-5.08 19.24-5.72L19.24-5.72L19.24-10.60L13.68-10.60L13.68-14.64L24.64-14.64L24.64-1.88Q23.08-0.88 20.64-0.24Q18.20 0.40 14.88 0.40L14.88 0.40Z M36.48 0L36.48-20.80L28.92-20.80L28.92-25.76L50.48-25.76L50.48-20.80L42.92-20.80L42.92 0L36.48 0Z"/></g>
</svg>
</g><g opacity="1" transform="rotate(0 153.2403 267.055)">
<svg width="81.3728" height="16" x="153.2403" y="267.055" version="1.1" preserveAspectRatio="none" viewBox="2.5547 -24.24 163.9653 32.239999999999995">
  <g transform="matrix(1 0 0 1 0 0)" class="a6izo4zJpcolor"><path id="id-6izo4zJp6" d="M7.84-0.04Q5.40-0.04 4.10-1.08Q2.80-2.12 2.56-4.28L2.56-4.28Q2.52-4.80 2.78-5.10Q3.04-5.40 3.56-5.40L3.56-5.40Q4.04-5.40 4.30-5.14Q4.56-4.88 4.64-4.36L4.64-4.36Q4.80-3.12 5.54-2.62Q6.28-2.12 7.84-2.12L7.84-2.12L14.40-2.12Q16.28-2.12 16.98-2.82Q17.68-3.52 17.68-5.40L17.68-5.40Q17.68-7.28 16.98-7.98Q16.28-8.68 14.40-8.68L14.40-8.68L7.96-8.68Q5.32-8.68 4.06-9.92Q2.80-11.16 2.80-13.76L2.80-13.76Q2.80-16.40 4.06-17.66Q5.32-18.92 7.96-18.92L7.96-18.92L14.20-18.92Q18.76-18.92 19.24-14.92L19.24-14.92Q19.28-14.40 19.02-14.12Q18.76-13.84 18.24-13.84L18.24-13.84Q17.76-13.84 17.50-14.08Q17.24-14.32 17.12-14.84L17.12-14.84Q16.96-15.96 16.30-16.40Q15.64-16.84 14.20-16.84L14.20-16.84L7.96-16.84Q6.20-16.84 5.54-16.18Q4.88-15.52 4.88-13.76L4.88-13.76Q4.88-12.04 5.54-11.40Q6.20-10.76 7.96-10.76L7.96-10.76L14.40-10.76Q17.16-10.76 18.46-9.44Q19.76-8.12 19.76-5.40L19.76-5.40Q19.76-2.64 18.46-1.34Q17.16-0.04 14.40-0.04L14.40-0.04L7.84-0.04Z M36.80 8Q34.16 8 32.92 6.76Q31.68 5.52 31.68 2.84L31.68 2.84Q31.68 1.80 32.72 1.80L32.72 1.80Q33.76 1.80 33.76 2.84L33.76 2.84Q33.76 4.64 34.40 5.28Q35.04 5.92 36.80 5.92L36.80 5.92L43.72 5.92Q45.48 5.92 46.12 5.28Q46.76 4.64 46.76 2.84L46.76 2.84L46.76-2.68Q45.64-1.24 43.94-0.60Q42.24 0.04 39.88 0.04L39.88 0.04L38.76 0.04Q35.08 0.04 33.38-1.64Q31.68-3.32 31.68-7L31.68-7L31.68-17.88Q31.68-18.92 32.72-18.92L32.72-18.92Q33.76-18.92 33.76-17.88L33.76-17.88L33.76-7Q33.76-4.20 34.86-3.12Q35.96-2.04 38.76-2.04L38.76-2.04L39.88-2.04Q43.36-2.04 45.06-3.28Q46.76-4.52 46.76-7L46.76-7L46.76-17.88Q46.76-18.92 47.80-18.92L47.80-18.92Q48.84-18.92 48.84-17.88L48.84-17.88L48.84 2.84Q48.84 5.52 47.60 6.76Q46.36 8 43.72 8L43.72 8L36.80 8Z M66.40-0.04Q63.96-0.04 62.66-1.08Q61.36-2.12 61.12-4.28L61.12-4.28Q61.08-4.80 61.34-5.10Q61.60-5.40 62.12-5.40L62.12-5.40Q62.60-5.40 62.86-5.14Q63.12-4.88 63.20-4.36L63.20-4.36Q63.36-3.12 64.10-2.62Q64.84-2.12 66.40-2.12L66.40-2.12L72.96-2.12Q74.84-2.12 75.54-2.82Q76.24-3.52 76.24-5.40L76.24-5.40Q76.24-7.28 75.54-7.98Q74.84-8.68 72.96-8.68L72.96-8.68L66.52-8.68Q63.88-8.68 62.62-9.92Q61.36-11.16 61.36-13.76L61.36-13.76Q61.36-16.40 62.62-17.66Q63.88-18.92 66.52-18.92L66.52-18.92L72.76-18.92Q77.32-18.92 77.80-14.92L77.80-14.92Q77.84-14.40 77.58-14.12Q77.32-13.84 76.80-13.84L76.80-13.84Q76.32-13.84 76.06-14.08Q75.80-14.32 75.68-14.84L75.68-14.84Q75.52-15.96 74.86-16.40Q74.20-16.84 72.76-16.84L72.76-16.84L66.52-16.84Q64.76-16.84 64.10-16.18Q63.44-15.52 63.44-13.76L63.44-13.76Q63.44-12.04 64.10-11.40Q64.76-10.76 66.52-10.76L66.52-10.76L72.96-10.76Q75.72-10.76 77.02-9.44Q78.32-8.12 78.32-5.40L78.32-5.40Q78.32-2.64 77.02-1.34Q75.72-0.04 72.96-0.04L72.96-0.04L66.40-0.04Z M98.32-2.08Q99.40-2.08 99.40-1.04L99.40-1.04Q99.40 0 98.32 0L98.32 0Q94.64 0 92.94-1.68Q91.24-3.36 91.24-7.04L91.24-7.04L91.24-16.80L88.84-16.80Q87.80-16.80 87.80-17.84L87.80-17.84Q87.80-18.88 88.84-18.88L88.84-18.88L91.24-18.88L91.24-23.20Q91.24-24.24 92.28-24.24L92.28-24.24Q93.32-24.24 93.32-23.20L93.32-23.20L93.32-18.88L98.36-18.88Q99.40-18.88 99.40-17.84L99.40-17.84Q99.40-16.80 98.36-16.80L98.36-16.80L93.32-16.80L93.32-7.04Q93.32-4.24 94.42-3.16Q95.52-2.08 98.32-2.08L98.32-2.08Z M125.40-8.64L110.84-8.64L110.84-7.16Q110.84-4.32 111.98-3.20Q113.12-2.08 115.96-2.08L115.96-2.08L119.24-2.08Q121.80-2.08 122.94-2.74Q124.08-3.40 124.28-5L124.28-5Q124.48-6 125.36-6L125.36-6Q125.92-6 126.18-5.72Q126.44-5.44 126.36-4.92L126.36-4.92Q126.08-2.40 124.34-1.20Q122.60 0 119.24 0L119.24 0L115.96 0Q112.24 0 110.50-1.72Q108.76-3.44 108.76-7.16L108.76-7.16L108.76-11.68Q108.76-15.44 110.50-17.18Q112.24-18.92 115.96-18.88L115.96-18.88L119.24-18.88Q122.96-18.88 124.70-17.14Q126.44-15.40 126.44-11.68L126.44-11.68L126.44-9.68Q126.44-8.64 125.40-8.64L125.40-8.64ZM110.84-11.68L110.84-10.72L124.36-10.72L124.36-11.68Q124.36-14.56 123.24-15.68Q122.12-16.80 119.24-16.80L119.24-16.80L115.96-16.80Q113.08-16.84 111.96-15.72Q110.84-14.60 110.84-11.68L110.84-11.68Z M160.52-18.92Q163.72-18.92 165.12-17.28Q166.52-15.64 166.52-11.88L166.52-11.88L166.52-1Q166.52 0.04 165.48 0.04L165.48 0.04Q164.44 0.04 164.44-1L164.44-1L164.44-11.88Q164.44-14.52 163.52-15.68Q162.60-16.84 160.52-16.84L160.52-16.84L158.88-16.84Q156.24-16.84 155.12-15.68Q154-14.52 154-11.88L154-11.88L154-1Q154 0.04 152.96 0.04L152.96 0.04Q151.92 0.04 151.92-1L151.92-1L151.92-11.88Q151.92-14.52 151-15.68Q150.08-16.84 148-16.84L148-16.84L146.32-16.84Q143.72-16.84 142.58-15.68Q141.44-14.52 141.44-11.88L141.44-11.88L141.44-1Q141.44 0.04 140.40 0.04L140.40 0.04Q139.36 0.04 139.36-1L139.36-1L139.36-17.84Q139.36-18.88 140.40-18.88L140.40-18.88Q141.44-18.88 141.44-17.84L141.44-17.84L141.44-16.28Q142.32-17.68 143.52-18.30Q144.72-18.92 146.60-18.92L146.60-18.92L148-18.92Q150.12-18.92 151.38-18.18Q152.64-17.44 153.40-15.76L153.40-15.76Q154.20-17.44 155.48-18.18Q156.76-18.92 158.88-18.92L158.88-18.92L160.52-18.92Z"/></g>
</svg>
</g><g opacity="1" transform="rotate(0 55.2691 209.055)">
<svg width="277.3152" height="40" x="55.2691" y="209.055" version="1.1" preserveAspectRatio="none" viewBox="3.2 -27.72 247.64000000000001 35.72">
  <g transform="matrix(1 0 0 1 0 0)" class="aD6z1nYkhcolor"><path id="id-D6z1nYkh13" d="M19.84-18.88Q20.88-18.88 20.88-17.84L20.88-17.84L20.88 2.88Q20.88 5.52 19.64 6.76Q18.40 8 15.76 8L15.76 8L8.32 8Q5.96 8 4.72 7.02Q3.48 6.04 3.28 3.96L3.28 3.96Q3.20 3.44 3.46 3.16Q3.72 2.88 4.28 2.88L4.28 2.88Q4.76 2.88 5 3.14Q5.24 3.40 5.36 3.92L5.36 3.92Q5.52 5.04 6.18 5.48Q6.84 5.92 8.32 5.92L8.32 5.92L15.76 5.92Q17.52 5.92 18.16 5.28Q18.80 4.64 18.80 2.88L18.80 2.88L18.80-2.80Q16.92 0 11.92 0L11.92 0L10.40 0Q6.68 0 4.94-1.72Q3.20-3.44 3.20-7.16L3.20-7.16L3.20-11.68Q3.20-15.44 4.94-17.18Q6.68-18.92 10.40-18.88L10.40-18.88L13.68-18.88Q15.60-18.88 16.84-18.36Q18.08-17.84 18.80-16.76L18.80-16.76L18.80-17.84Q18.80-18.88 19.84-18.88L19.84-18.88ZM11.92-2.08Q15.12-2.08 16.96-3.08Q18.80-4.08 18.80-6.04L18.80-6.04L18.80-12.72Q18.80-14.92 17.56-15.86Q16.32-16.80 13.68-16.80L13.68-16.80L10.40-16.80Q7.52-16.84 6.40-15.72Q5.28-14.60 5.28-11.68L5.28-11.68L5.28-7.16Q5.28-4.32 6.40-3.20Q7.52-2.08 10.40-2.08L10.40-2.08L11.92-2.08Z M37.76-18.88Q38.80-18.88 38.80-17.84L38.80-17.84Q38.80-16.80 37.76-16.80L37.76-16.80Q34.16-16.80 32.20-15.16Q30.24-13.52 30.08-10.48L30.08-10.48Q30.08-10.28 30.04-10.20L30.04-10.20L30.04-1.04Q30.04 0 29 0L29 0Q27.96 0 27.96-1.04L27.96-1.04L27.96-17.84Q27.96-18.88 29-18.88L29-18.88Q30.04-18.88 30.04-17.84L30.04-17.84L30.04-14.64Q31.08-16.68 33.06-17.78Q35.04-18.88 37.76-18.88L37.76-18.88Z M51-18.88Q54.76-18.88 56.48-17.16Q58.20-15.44 58.20-11.68L58.20-11.68L58.20-1.04Q58.20 0 57.16 0L57.16 0Q56.12 0 56.12-1.04L56.12-1.04L56.12-3Q55.16-1.52 53.42-0.76Q51.68 0 49.24 0L49.24 0L47 0Q43.92 0 42.46-1.44Q41-2.88 41-6L41-6Q41-9.12 42.46-10.58Q43.92-12.04 47-12.04L47-12.04L56.12-12.04Q56.04-14.68 54.92-15.74Q53.80-16.80 51-16.80L51-16.80L48.68-16.80Q46.12-16.80 44.96-16.26Q43.80-15.72 43.52-14.40L43.52-14.40Q43.36-13.88 43.12-13.66Q42.88-13.44 42.44-13.44L42.44-13.44Q41.88-13.44 41.62-13.72Q41.36-14 41.40-14.52L41.40-14.52Q41.68-16.80 43.46-17.84Q45.24-18.88 48.68-18.88L48.68-18.88L51-18.88ZM56.04-6.08L56.12-6.40L56.12-9.96L47-9.96Q44.76-9.96 43.92-9.10Q43.08-8.24 43.08-6L43.08-6Q43.08-3.80 43.94-2.94Q44.80-2.08 47-2.08L47-2.08L49.24-2.08Q55.44-2.08 56.04-6.08L56.04-6.08Z M81.40-27.72Q82.44-27.72 82.44-26.68L82.44-26.68L82.44-1.04Q82.44 0 81.40 0L81.40 0Q80.36 0 80.36-1.04L80.36-1.04L80.36-2.72Q79.48-1.36 77.80-0.68Q76.12 0 73.48 0L73.48 0L71.96 0Q68.24 0 66.50-1.74Q64.76-3.48 64.76-7.20L64.76-7.20L64.76-11.68Q64.76-15.40 66.50-17.14Q68.24-18.88 71.96-18.88L71.96-18.88L80.36-18.88L80.36-26.68Q80.36-27.72 81.40-27.72L81.40-27.72ZM73.48-2.08Q76.68-2.08 78.52-3.10Q80.36-4.12 80.36-6.04L80.36-6.04L80.36-16.80L71.96-16.80Q69.08-16.80 67.96-15.66Q66.84-14.52 66.84-11.68L66.84-11.68L66.84-7.20Q66.84-4.32 67.98-3.20Q69.12-2.08 71.96-2.08L71.96-2.08L73.48-2.08Z M105.64-8.64L91.08-8.64L91.08-7.16Q91.08-4.32 92.22-3.20Q93.36-2.08 96.20-2.08L96.20-2.08L99.48-2.08Q102.04-2.08 103.18-2.74Q104.32-3.40 104.52-5L104.52-5Q104.72-6 105.60-6L105.60-6Q106.16-6 106.42-5.72Q106.68-5.44 106.60-4.92L106.60-4.92Q106.32-2.40 104.58-1.20Q102.84 0 99.48 0L99.48 0L96.20 0Q92.48 0 90.74-1.72Q89.00-3.44 89.00-7.16L89.00-7.16L89.00-11.68Q89.00-15.44 90.74-17.18Q92.48-18.92 96.20-18.88L96.20-18.88L99.48-18.88Q103.20-18.88 104.94-17.14Q106.68-15.40 106.68-11.68L106.68-11.68L106.68-9.68Q106.68-8.64 105.64-8.64L105.64-8.64ZM91.08-11.68L91.08-10.72L104.60-10.72L104.60-11.68Q104.60-14.56 103.48-15.68Q102.36-16.80 99.48-16.80L99.48-16.80L96.20-16.80Q93.32-16.84 92.20-15.72Q91.08-14.60 91.08-11.68L91.08-11.68Z M131.32-2.08Q132.40-2.08 132.40-1.04L132.40-1.04Q132.40 0 131.32 0L131.32 0Q127.64 0 125.94-1.68Q124.24-3.36 124.24-7.04L124.24-7.04L124.24-16.80L121.84-16.80Q120.80-16.80 120.80-17.84L120.80-17.84Q120.80-18.88 121.84-18.88L121.84-18.88L124.24-18.88L124.24-23.20Q124.24-24.24 125.28-24.24L125.28-24.24Q126.32-24.24 126.32-23.20L126.32-23.20L126.32-18.88L131.36-18.88Q132.40-18.88 132.40-17.84L132.40-17.84Q132.40-16.80 131.36-16.80L131.36-16.80L126.32-16.80L126.32-7.04Q126.32-4.24 127.42-3.16Q128.52-2.08 131.32-2.08L131.32-2.08Z M147.68-18.88Q148.72-18.88 148.72-17.84L148.72-17.84Q148.72-16.80 147.68-16.80L147.68-16.80Q144.08-16.80 142.12-15.16Q140.16-13.52 140.00-10.48L140.00-10.48Q140.00-10.28 139.96-10.20L139.96-10.20L139.96-1.04Q139.96 0 138.92 0L138.92 0Q137.88 0 137.88-1.04L137.88-1.04L137.88-17.84Q137.88-18.88 138.92-18.88L138.92-18.88Q139.96-18.88 139.96-17.84L139.96-17.84L139.96-14.64Q141.00-16.68 142.98-17.78Q144.96-18.88 147.68-18.88L147.68-18.88Z M160.92-18.88Q164.68-18.88 166.40-17.16Q168.12-15.44 168.12-11.68L168.12-11.68L168.12-1.04Q168.12 0 167.08 0L167.08 0Q166.04 0 166.04-1.04L166.04-1.04L166.04-3Q165.08-1.52 163.34-0.76Q161.60 0 159.16 0L159.16 0L156.92 0Q153.84 0 152.38-1.44Q150.92-2.88 150.92-6L150.92-6Q150.92-9.12 152.38-10.58Q153.84-12.04 156.92-12.04L156.92-12.04L166.04-12.04Q165.96-14.68 164.84-15.74Q163.72-16.80 160.92-16.80L160.92-16.80L158.60-16.80Q156.04-16.80 154.88-16.26Q153.72-15.72 153.44-14.40L153.44-14.40Q153.28-13.88 153.04-13.66Q152.80-13.44 152.36-13.44L152.36-13.44Q151.80-13.44 151.54-13.72Q151.28-14 151.32-14.52L151.32-14.52Q151.60-16.80 153.38-17.84Q155.16-18.88 158.60-18.88L158.60-18.88L160.92-18.88ZM165.96-6.08L166.04-6.40L166.04-9.96L156.92-9.96Q154.68-9.96 153.84-9.10Q153.00-8.24 153.00-6L153.00-6Q153.00-3.80 153.86-2.94Q154.72-2.08 156.92-2.08L156.92-2.08L159.16-2.08Q165.36-2.08 165.96-6.08L165.96-6.08Z M181.88 0Q178.16 0 176.42-1.74Q174.68-3.48 174.68-7.20L174.68-7.20L174.68-11.72Q174.68-15.48 176.42-17.20Q178.16-18.92 181.88-18.88L181.88-18.88L185.16-18.88Q188.12-18.88 189.66-17.88Q191.20-16.88 191.48-14.76L191.48-14.76Q191.56-14.28 191.28-13.98Q191.00-13.68 190.48-13.68L190.48-13.68Q189.60-13.68 189.40-14.64L189.40-14.64Q189.16-15.84 188.20-16.32Q187.24-16.80 185.16-16.80L185.16-16.80L181.88-16.80Q179.00-16.84 177.88-15.72Q176.76-14.60 176.76-11.72L176.76-11.72L176.76-7.20Q176.76-4.32 177.90-3.20Q179.04-2.08 181.88-2.08L181.88-2.08L185.16-2.08Q187.24-2.08 188.20-2.56Q189.16-3.04 189.40-4.24L189.40-4.24Q189.60-5.20 190.48-5.20L190.48-5.20Q191.00-5.20 191.28-4.90Q191.56-4.60 191.48-4.12L191.48-4.12Q191.20-2 189.66-1Q188.12 0 185.16 0L185.16 0L181.88 0Z M211.88-1.80Q212.20-1.40 212.20-1.08L212.20-1.08Q212.20-0.68 211.76-0.32L211.76-0.32Q211.36 0 211.08 0L211.08 0Q210.72 0 210.32-0.40L210.32-0.40L202.24-9.52L199.68-7.28L199.68-1.04Q199.68 0 198.64 0L198.64 0Q197.60 0 197.60-1.04L197.60-1.04L197.60-26.68Q197.60-27.72 198.64-27.72L198.64-27.72Q199.68-27.72 199.68-26.68L199.68-26.68L199.68-10.08L209.84-18.80Q210.24-19.12 210.56-19.12L210.56-19.12Q210.96-19.12 211.32-18.68L211.32-18.68Q211.64-18.28 211.64-18L211.64-18Q211.64-17.64 211.20-17.20L211.20-17.20L203.84-10.84L211.88-1.80Z M232.04-8.64L217.48-8.64L217.48-7.16Q217.48-4.32 218.62-3.20Q219.76-2.08 222.60-2.08L222.60-2.08L225.88-2.08Q228.44-2.08 229.58-2.74Q230.72-3.40 230.92-5L230.92-5Q231.12-6 232.00-6L232.00-6Q232.56-6 232.82-5.72Q233.08-5.44 233.00-4.92L233.00-4.92Q232.72-2.40 230.98-1.20Q229.24 0 225.88 0L225.88 0L222.60 0Q218.88 0 217.14-1.72Q215.40-3.44 215.40-7.16L215.40-7.16L215.40-11.68Q215.40-15.44 217.14-17.18Q218.88-18.92 222.60-18.88L222.60-18.88L225.88-18.88Q229.60-18.88 231.34-17.14Q233.08-15.40 233.08-11.68L233.08-11.68L233.08-9.68Q233.08-8.64 232.04-8.64L232.04-8.64ZM217.48-11.68L217.48-10.72L231.00-10.72L231.00-11.68Q231.00-14.56 229.88-15.68Q228.76-16.80 225.88-16.80L225.88-16.80L222.60-16.80Q219.72-16.84 218.60-15.72Q217.48-14.60 217.48-11.68L217.48-11.68Z M249.80-18.88Q250.84-18.88 250.84-17.84L250.84-17.84Q250.84-16.80 249.80-16.80L249.80-16.80Q246.20-16.80 244.24-15.16Q242.28-13.52 242.12-10.48L242.12-10.48Q242.12-10.28 242.08-10.20L242.08-10.20L242.08-1.04Q242.08 0 241.04 0L241.04 0Q240.00 0 240.00-1.04L240.00-1.04L240.00-17.84Q240.00-18.88 241.04-18.88L241.04-18.88Q242.08-18.88 242.08-17.84L242.08-17.84L242.08-14.64Q243.12-16.68 245.10-17.78Q247.08-18.88 249.80-18.88L249.80-18.88Z"/></g>
</svg>
</g></svg></svg>