<svg version="1.1" preserveAspectRatio="none" xmlns="http://www.w3.org/2000/svg" width="500" height="500" viewBox="0 0 500 500"><rect width="100%" height="100%" fill="#0AC5A8" fill-opacity="1"/><svg viewBox="51.9043 80.9458 382.594 315.797" width="333" height="274.8616052525654" x="83.5px" y="112.5692px" xmlns="http://www.w3.org/2000/svg" xmlns:xlink="http://www.w3.org/1999/xlink" preserveAspectRatio="none"><defs></defs><style>.a6izo4zJpcolor {fill:#2C3C5B;fill-opacity:1;}.aD6z1nYkhcolor {fill:#2C3C5B;fill-opacity:1;}.aLgOaV3zRcolors-3 {fill:#BDBDC2;fill-opacity:1;}.aLgOaV3zRcolors-4 {fill:#51F3DA;fill-opacity:1;}.aLgOaV3zRcolors-5 {fill:#A7ACB0;fill-opacity:1;}.aLgOaV3zRcolors-6 {fill:#0AC5A8;fill-opacity:1;}.aLgOaV3zRcolors-7 {fill:#2C3C5B;fill-opacity:1;}.icon1 {fill:#869CB8;fill-opacity:1;}.icon2 {fill:#5E738E;fill-opacity:1;}.icon3 {fill:#151F35;fill-opacity:1;}.icon3-str {stroke:#151F35;stroke-opacity:1;}</style><g opacity="1" transform="rotate(0 197.1788 374.2428)">
<svg width="92.045" height="22.5" x="197.1788" y="374.2428" version="1.1" preserveAspectRatio="none" viewBox="1.04 -25.64 137.44000000000003 33.6">
  <g transform="matrix(1 0 0 1 0 0)" class="a6izo4zJpcolor"><path id="id-6izo4zJp6" d="M9.60 0.20Q7.04 0.20 4.70-0.54Q2.36-1.28 1.04-2.40L1.04-2.40L2.32-4.64Q3.64-3.60 5.64-2.94Q7.64-2.28 9.80-2.28L9.80-2.28Q12.68-2.28 14.06-3.18Q15.44-4.08 15.44-5.72L15.44-5.72Q15.44-6.88 14.68-7.54Q13.92-8.20 12.76-8.54Q11.60-8.88 9.68-9.20L9.68-9.20Q7.12-9.68 5.56-10.18Q4-10.68 2.90-11.88Q1.80-13.08 1.80-15.20L1.80-15.20Q1.80-17.84 4-19.52Q6.20-21.20 10.12-21.20L10.12-21.20Q12.16-21.20 14.20-20.66Q16.24-20.12 17.56-19.24L17.56-19.24L16.32-16.96Q13.72-18.76 10.12-18.76L10.12-18.76Q7.40-18.76 6.02-17.80Q4.64-16.84 4.64-15.28L4.64-15.28Q4.64-14.08 5.42-13.36Q6.20-12.64 7.36-12.30Q8.52-11.96 10.56-11.60L10.56-11.60Q13.08-11.12 14.60-10.64Q16.12-10.16 17.20-9Q18.28-7.84 18.28-5.80L18.28-5.80Q18.28-3.04 15.98-1.42Q13.68 0.20 9.60 0.20L9.60 0.20Z M38-21.04L40.80-21.04L30.28 2.52Q29 5.48 27.32 6.72Q25.64 7.96 23.28 7.96L23.28 7.96Q21.76 7.96 20.44 7.48Q19.12 7 18.16 6.04L18.16 6.04L19.48 3.92Q21.08 5.52 23.32 5.52L23.32 5.52Q24.76 5.52 25.78 4.72Q26.80 3.92 27.68 2L27.68 2L28.60-0.04L19.20-21.04L22.16-21.04L30.08-3.16L38-21.04Z M50.20 0.20Q47.64 0.20 45.30-0.54Q42.96-1.28 41.64-2.40L41.64-2.40L42.92-4.64Q44.24-3.60 46.24-2.94Q48.24-2.28 50.40-2.28L50.40-2.28Q53.28-2.28 54.66-3.18Q56.04-4.08 56.04-5.72L56.04-5.72Q56.04-6.88 55.28-7.54Q54.52-8.20 53.36-8.54Q52.20-8.88 50.28-9.20L50.28-9.20Q47.72-9.68 46.16-10.18Q44.60-10.68 43.50-11.88Q42.40-13.08 42.40-15.20L42.40-15.20Q42.40-17.84 44.60-19.52Q46.80-21.20 50.72-21.20L50.72-21.20Q52.76-21.20 54.80-20.66Q56.84-20.12 58.16-19.24L58.16-19.24L56.92-16.96Q54.32-18.76 50.72-18.76L50.72-18.76Q48-18.76 46.62-17.80Q45.24-16.84 45.24-15.28L45.24-15.28Q45.24-14.08 46.02-13.36Q46.80-12.64 47.96-12.30Q49.12-11.96 51.16-11.60L51.16-11.60Q53.68-11.12 55.20-10.64Q56.72-10.16 57.80-9Q58.88-7.84 58.88-5.80L58.88-5.80Q58.88-3.04 56.58-1.42Q54.28 0.20 50.20 0.20L50.20 0.20Z M74.20-3.32L75.20-1.28Q74.40-0.56 73.22-0.18Q72.04 0.20 70.76 0.20L70.76 0.20Q67.80 0.20 66.20-1.40Q64.60-3 64.60-5.92L64.60-5.92L64.60-18.64L60.84-18.64L60.84-21.04L64.60-21.04L64.60-25.64L67.44-25.64L67.44-21.04L73.84-21.04L73.84-18.64L67.44-18.64L67.44-6.08Q67.44-4.20 68.38-3.22Q69.32-2.24 71.08-2.24L71.08-2.24Q71.96-2.24 72.78-2.52Q73.60-2.80 74.20-3.32L74.20-3.32Z M97.96-10.52L97.92-9.64L80.32-9.64Q80.56-6.36 82.84-4.34Q85.12-2.32 88.60-2.32L88.60-2.32Q90.56-2.32 92.20-3.02Q93.84-3.72 95.04-5.08L95.04-5.08L96.64-3.24Q95.24-1.56 93.14-0.68Q91.04 0.20 88.52 0.20L88.52 0.20Q85.28 0.20 82.78-1.18Q80.28-2.56 78.88-5Q77.48-7.44 77.48-10.52L77.48-10.52Q77.48-13.60 78.82-16.04Q80.16-18.48 82.50-19.84Q84.84-21.20 87.76-21.20L87.76-21.20Q90.68-21.20 93-19.84Q95.32-18.48 96.64-16.06Q97.96-13.64 97.96-10.52L97.96-10.52ZM87.76-18.76Q84.72-18.76 82.66-16.82Q80.60-14.88 80.32-11.76L80.32-11.76L95.24-11.76Q94.96-14.88 92.90-16.82Q90.84-18.76 87.76-18.76L87.76-18.76Z M130-21.20Q133.96-21.20 136.22-18.92Q138.48-16.64 138.48-12.20L138.48-12.20L138.48 0L135.64 0L135.64-11.92Q135.64-15.20 134.06-16.92Q132.48-18.64 129.60-18.64L129.60-18.64Q126.32-18.64 124.44-16.62Q122.56-14.60 122.56-11.04L122.56-11.04L122.56 0L119.72 0L119.72-11.92Q119.72-15.20 118.14-16.92Q116.56-18.64 113.64-18.64L113.64-18.64Q110.40-18.64 108.50-16.62Q106.60-14.60 106.60-11.04L106.60-11.04L106.60 0L103.76 0L103.76-21.04L106.48-21.04L106.48-17.20Q107.60-19.12 109.60-20.16Q111.60-21.20 114.20-21.20L114.20-21.20Q116.84-21.20 118.78-20.08Q120.72-18.96 121.68-16.76L121.68-16.76Q122.84-18.84 125.02-20.02Q127.20-21.20 130-21.20L130-21.20Z"/></g>
</svg>
</g><g opacity="1" transform="rotate(0 51.9043 302.2428)">
<svg width="382.594" height="50" x="51.9043" y="302.2428" version="1.1" preserveAspectRatio="none" viewBox="1.08 -29.68 289.24 37.8">
  <g transform="matrix(1 0 0 1 0 0)" class="aD6z1nYkhcolor"><path id="id-D6z1nYkh13" d="M18.52-21.68L25.76-21.68L25.76-3.96Q25.76 2.08 22.48 5.10Q19.20 8.12 13.04 8.12L13.04 8.12Q9.84 8.12 7.04 7.40Q4.24 6.68 2.28 5.28L2.28 5.28L5.04-0.04Q6.36 1.04 8.38 1.66Q10.40 2.28 12.36 2.28L12.36 2.28Q15.36 2.28 16.76 0.96Q18.16-0.36 18.16-2.96L18.16-2.96L18.16-3.68Q15.96-1.12 11.72-1.12L11.72-1.12Q8.84-1.12 6.40-2.42Q3.96-3.72 2.52-6.10Q1.08-8.48 1.08-11.60L1.08-11.60Q1.08-14.68 2.52-17.06Q3.96-19.44 6.40-20.74Q8.84-22.04 11.72-22.04L11.72-22.04Q16.36-22.04 18.52-19.04L18.52-19.04L18.52-21.68ZM13.52-7.16Q15.56-7.16 16.90-8.40Q18.24-9.64 18.24-11.60L18.24-11.60Q18.24-13.56 16.92-14.78Q15.60-16 13.52-16L13.52-16Q11.44-16 10.10-14.78Q8.76-13.56 8.76-11.60L8.76-11.60Q8.76-9.64 10.12-8.40Q11.48-7.16 13.52-7.16L13.52-7.16Z M37.88-19.08Q39.04-20.56 40.90-21.30Q42.76-22.04 45.16-22.04L45.16-22.04L45.16-15.20Q44.12-15.32 43.44-15.32L43.44-15.32Q41-15.32 39.62-14Q38.24-12.68 38.24-9.96L38.24-9.96L38.24 0L30.64 0L30.64-21.68L37.88-21.68L37.88-19.08Z M57.36-22.04Q62.76-22.04 65.60-19.58Q68.44-17.12 68.44-12.04L68.44-12.04L68.44 0L61.36 0L61.36-2.80Q59.72 0.36 54.96 0.36L54.96 0.36Q52.44 0.36 50.60-0.52Q48.76-1.40 47.82-2.90Q46.88-4.40 46.88-6.32L46.88-6.32Q46.88-9.40 49.24-11.10Q51.60-12.80 56.52-12.80L56.52-12.80L60.84-12.80Q60.64-16.24 56.24-16.24L56.24-16.24Q54.68-16.24 53.08-15.74Q51.48-15.24 50.36-14.36L50.36-14.36L47.80-19.52Q49.60-20.72 52.18-21.38Q54.76-22.04 57.36-22.04L57.36-22.04ZM57.08-4.44Q58.40-4.44 59.40-5.08Q60.40-5.72 60.84-6.96L60.84-6.96L60.84-8.84L57.56-8.84Q54.24-8.84 54.24-6.64L54.24-6.64Q54.24-5.64 55-5.04Q55.76-4.44 57.08-4.44L57.08-4.44Z M89.00-29.68L96.60-29.68L96.60 0L89.36 0L89.36-2.16Q87.24 0.36 83.00 0.36L83.00 0.36Q80.04 0.36 77.60-1.02Q75.16-2.40 73.74-4.96Q72.32-7.52 72.32-10.88L72.32-10.88Q72.32-14.24 73.74-16.78Q75.16-19.32 77.60-20.68Q80.04-22.04 83.00-22.04L83.00-22.04Q86.88-22.04 89.00-19.80L89.00-19.80L89.00-29.68ZM84.60-5.68Q86.56-5.68 87.84-7.06Q89.12-8.44 89.12-10.88L89.12-10.88Q89.12-13.28 87.86-14.64Q86.60-16 84.60-16L84.60-16Q82.60-16 81.32-14.64Q80.04-13.28 80.04-10.88L80.04-10.88Q80.04-8.44 81.32-7.06Q82.60-5.68 84.60-5.68L84.60-5.68Z M123.64-10.80Q123.64-10.72 123.52-8.92L123.52-8.92L107.76-8.92Q108.24-7.24 109.62-6.34Q111-5.44 113.08-5.44L113.08-5.44Q114.64-5.44 115.78-5.88Q116.92-6.32 118.08-7.32L118.08-7.32L122.08-3.16Q118.92 0.36 112.84 0.36L112.84 0.36Q109.04 0.36 106.16-1.08Q103.28-2.52 101.70-5.08Q100.12-7.64 100.12-10.88L100.12-10.88Q100.12-14.08 101.66-16.62Q103.20-19.16 105.92-20.60Q108.64-22.04 112.04-22.04L112.04-22.04Q115.28-22.04 117.92-20.70Q120.56-19.36 122.10-16.82Q123.64-14.28 123.64-10.80L123.64-10.80ZM112.08-16.64Q110.32-16.64 109.14-15.64Q107.96-14.64 107.64-12.92L107.64-12.92L116.52-12.92Q116.20-14.64 115.02-15.64Q113.84-16.64 112.08-16.64L112.08-16.64Z M151.88-6.20L153.76-0.88Q152.80-0.28 151.42 0.04Q150.04 0.36 148.48 0.36L148.48 0.36Q144.24 0.36 141.96-1.72Q139.68-3.80 139.68-7.92L139.68-7.92L139.68-15.20L136.52-15.20L136.52-20.88L139.68-20.88L139.68-26.52L147.28-26.52L147.28-20.88L152.24-20.88L152.24-15.20L147.28-15.20L147.28-8Q147.28-6.84 147.90-6.18Q148.52-5.52 149.56-5.52L149.56-5.52Q150.88-5.52 151.88-6.20L151.88-6.20Z M163.92-19.08Q165.08-20.56 166.94-21.30Q168.80-22.04 171.20-22.04L171.20-22.04L171.20-15.20Q170.16-15.32 169.48-15.32L169.48-15.32Q167.04-15.32 165.66-14Q164.28-12.68 164.28-9.96L164.28-9.96L164.28 0L156.68 0L156.68-21.68L163.92-21.68L163.92-19.08Z M183.40-22.04Q188.80-22.04 191.64-19.58Q194.48-17.12 194.48-12.04L194.48-12.04L194.48 0L187.40 0L187.40-2.80Q185.76 0.36 181 0.36L181 0.36Q178.48 0.36 176.64-0.52Q174.80-1.40 173.86-2.90Q172.92-4.40 172.92-6.32L172.92-6.32Q172.92-9.40 175.28-11.10Q177.64-12.80 182.56-12.80L182.56-12.80L186.88-12.80Q186.68-16.24 182.28-16.24L182.28-16.24Q180.72-16.24 179.12-15.74Q177.52-15.24 176.40-14.36L176.40-14.36L173.84-19.52Q175.64-20.72 178.22-21.38Q180.80-22.04 183.40-22.04L183.40-22.04ZM183.12-4.44Q184.44-4.44 185.44-5.08Q186.44-5.72 186.88-6.96L186.88-6.96L186.88-8.84L183.60-8.84Q180.28-8.84 180.28-6.64L180.28-6.64Q180.28-5.64 181.04-5.04Q181.80-4.44 183.12-4.44L183.12-4.44Z M210.68 0.36Q207.08 0.36 204.24-1.08Q201.40-2.52 199.82-5.08Q198.24-7.64 198.24-10.88L198.24-10.88Q198.24-14.12 199.82-16.66Q201.40-19.20 204.24-20.62Q207.08-22.04 210.68-22.04L210.68-22.04Q214.36-22.04 217.04-20.46Q219.72-18.88 220.84-16.08L220.84-16.08L214.96-13.08Q213.48-16 210.64-16L210.64-16Q208.60-16 207.26-14.64Q205.92-13.28 205.92-10.88L205.92-10.88Q205.92-8.44 207.26-7.06Q208.60-5.68 210.64-5.68L210.64-5.68Q213.48-5.68 214.96-8.60L214.96-8.60L220.84-5.60Q219.72-2.80 217.04-1.22Q214.36 0.36 210.68 0.36L210.68 0.36Z M239.56 0L233.48-7.60L231.24-5.32L231.24 0L223.64 0L223.64-29.68L231.24-29.68L231.24-14.12L239-21.68L248-21.68L239-12.40L248.76 0L239.56 0Z M272.28-10.80Q272.28-10.72 272.16-8.92L272.16-8.92L256.40-8.92Q256.88-7.24 258.26-6.34Q259.64-5.44 261.72-5.44L261.72-5.44Q263.28-5.44 264.42-5.88Q265.56-6.32 266.72-7.32L266.72-7.32L270.72-3.16Q267.56 0.36 261.48 0.36L261.48 0.36Q257.68 0.36 254.80-1.08Q251.92-2.52 250.34-5.08Q248.76-7.64 248.76-10.88L248.76-10.88Q248.76-14.08 250.30-16.62Q251.84-19.16 254.56-20.60Q257.28-22.04 260.68-22.04L260.68-22.04Q263.92-22.04 266.56-20.70Q269.20-19.36 270.74-16.82Q272.28-14.28 272.28-10.80L272.28-10.80ZM260.72-16.64Q258.96-16.64 257.78-15.64Q256.60-14.64 256.28-12.92L256.28-12.92L265.16-12.92Q264.84-14.64 263.66-15.64Q262.48-16.64 260.72-16.64L260.72-16.64Z M283.04-19.08Q284.20-20.56 286.06-21.30Q287.92-22.04 290.32-22.04L290.32-22.04L290.32-15.20Q289.28-15.32 288.60-15.32L288.60-15.32Q286.16-15.32 284.78-14Q283.40-12.68 283.40-9.96L283.40-9.96L283.40 0L275.80 0L275.80-21.68L283.04-21.68L283.04-19.08Z"/></g>
</svg>
</g><g opacity="1" transform="rotate(0 147.5528 80.9458)">
<svg width="191.297" height="191.297" x="147.5528" y="80.9458" version="1.1" preserveAspectRatio="none" viewBox="2.499828338623047 2.5002782344818115 95.00021362304688 95.00020599365234">
  <g transform="matrix(1 0 0 1 0 0)" class="icon1"><path d="m97.492 36.66c0-0.48047-0.17969-0.96094-0.54297-1.3359l-3.3164-3.4258-27.781-28.691c-0.015624-0.015625-0.03125-0.03125-0.046874-0.046875l-0.054688-0.054687c-0.007812-0.011719-0.023438-0.015625-0.03125-0.027344-0.074219-0.074219-0.15234-0.14453-0.23828-0.20312-0.011719-0.007812-0.019531-0.011719-0.03125-0.015625-0.30859-0.21094-0.67188-0.33984-1.0742-0.33984-0.019531 0-0.035156 0.003907-0.054688 0.003907l-0.98047-0.023438h-35.891c-6.8633 0-13.102 2.8047-17.621 7.3281-4.5195 4.5195-7.3281 10.758-7.3281 17.621v45.102c0 6.8633 2.8086 13.102 7.3281 17.621s10.758 7.3281 17.621 7.3281h45.102c6.8633 0 13.102-2.8086 17.621-7.3281 4.5234-4.5195 7.3281-10.758 7.3281-17.621v-35.891zm-84.949-24.121c3.8281-3.8281 9.1055-6.2031 14.91-6.2031h35.008v6.2539c0 6.8633 2.8086 13.102 7.3281 17.621 4.5195 4.5195 10.758 7.3281 17.621 7.3281h6.2539v34.113l-87.324 0.003906v-44.207c0-5.8047 2.375-11.082 6.2031-14.91zm10.297 74.973 3.0664-0.35156c0.035156 0.92578 0.17188 1.5781 0.40625 1.957 0.35156 0.57812 0.88672 0.87109 1.6055 0.87109 0.72656 0 1.2383-0.20703 1.5391-0.62109 0.30078-0.41406 0.44922-1.2734 0.44922-2.5781l0.003906-10.414h3.2422v10.203c0 1.3359-0.11719 2.3594-0.35156 3.0781-0.31641 0.9375-0.88672 1.6914-1.7148 2.2578-0.82813 0.56641-1.9219 0.85156-3.2773 0.85156-1.5898 0-2.8125-0.44531-3.6719-1.3359-0.85547-0.89063-1.2891-2.1953-1.2969-3.918zm52.703 4.9766-1.4062-3.6602h-6.4414l-1.3281 3.6602h-3.4531l6.2773-16.117h3.4414l6.4531 16.117zm-16.754 0h-3.4727l-5.7617-16.113h3.5273l4.0781 11.926 3.9453-11.926h3.4531zm-7.6406 0h-3.5391l-1.4062-3.6602h-6.4414l-1.3281 3.6602h-3.4531l6.2773-16.117h3.4414z" fill-rule="evenodd"></path><path d="m68.695 86.113h4.3984l-2.2227-5.9805z" fill-rule="evenodd"></path><path d="m40.762 86.113h4.3945l-2.2188-5.9805z" fill-rule="evenodd"></path><path d="m50 61.902c4.7695 0 9.0898-1.9336 12.215-5.0586s5.0586-7.4453 5.0586-12.215c0-1.0742-0.87109-1.9492-1.9492-1.9492h-30.648c-1.0742 0-1.9492 0.87109-1.9492 1.9492 0 4.7695 1.9336 9.0898 5.0586 12.215s7.4453 5.0586 12.215 5.0586zm13.234-15.324c-0.42578 2.9141-1.7891 5.5234-3.7773 7.5117-2.418 2.418-5.7656 3.918-9.457 3.918-3.6953 0-7.0391-1.4961-9.457-3.918-1.9844-1.9844-3.3516-4.5977-3.7773-7.5117z" fill-rule="evenodd"></path><path d="m57.648 63.172h-15.297c-1.0586 0-1.918 0.85938-1.918 1.918s0.85938 1.918 1.918 1.918l15.297 0.003907c1.0586 0 1.918-0.85938 1.918-1.918 0-1.0625-0.85938-1.9219-1.918-1.9219z" fill-rule="evenodd"></path><path d="m44.609 41.883c1-0.23437 1.8672-0.55859 2.5859-0.96484 0.95703-0.53906 1.6484-1.2266 2.0664-2.0469 0.46094-0.89844 0.57422-1.8789 0.32812-2.9219-0.12109-0.50781-0.33594-1.043-0.64844-1.5977-0.23828-0.42578-0.39453-0.67969-0.54297-0.91797-0.33203-0.54688-0.66016-1.0898-0.84375-1.5664-0.09375-0.24219 0.035156-0.5 0.82812-0.80469 0.98828-0.375 1.4844-1.4844 1.1094-2.4727-0.375-0.98828-1.4844-1.4844-2.4727-1.1094-3.6719 1.3984-3.9258 3.4531-3.0508 5.75 0.27734 0.73438 0.71875 1.457 1.1602 2.1875l0.48047 0.80469c0.11719 0.20703 0.19922 0.40625 0.24219 0.59375 0.035157 0.14453 0.035157 0.25 0.003907 0.3125-0.074219 0.14062-0.25391 0.29688-0.53906 0.45703-0.37891 0.21484-0.90625 0.40234-1.582 0.55859-1.0312 0.23828-1.6719 1.2695-1.4336 2.3008 0.24609 1.0391 1.2773 1.6797 2.3086 1.4375z" fill-rule="evenodd"></path><path d="m52.637 41.883c1-0.23437 1.8672-0.55859 2.5859-0.96484 0.95703-0.53906 1.6484-1.2266 2.0664-2.0469 0.46094-0.89844 0.57422-1.8789 0.32813-2.9219-0.12109-0.50781-0.33594-1.043-0.64844-1.5977-0.51562-0.91797-1.6836-1.2422-2.6016-0.72656-0.91797 0.51562-1.2461 1.6836-0.72656 2.6016 0.11719 0.20703 0.19922 0.40625 0.24219 0.59375 0.035157 0.14453 0.035157 0.25 0.003907 0.3125-0.074219 0.14063-0.25391 0.29688-0.53906 0.45703-0.37891 0.21484-0.90625 0.40234-1.582 0.55859-1.0312 0.23828-1.6719 1.2695-1.4336 2.3008 0.24219 1.0352 1.2734 1.6758 2.3047 1.4336z" fill-rule="evenodd"></path></g>
</svg>
</g></svg></svg>